# xmcd
#
# Track frame offsets:
#	150
#	4805
#	27072
#	40687
#	57275
#	68385
#	83600
#	95670
#	111315
#	133800
#	147872
#
# Disc length: 2137 seconds
#
# Revision: 0
# Processed by: cddbd v1.4PL0 Copyright (c) Steve Scherf et al.
# Submitted via: dBpowerAMP V4.0
#
DISCID=8808570b
DTITLE=Steve and Annie Chapman - Coming Home For Christmas
DYEAR=1993
DGENRE=Gospel
TTITLE0=Silver Bells (Intro)
TTITLE1=Mystery of The Season
TTITLE2=O Come All ye Faithful
TTITLE3=The Stable
TTITLE4=Was he Quiet or Did he Cry?
TTITLE5=Away in a Manger/Silent Night
TTITLE6=Christmas Times a Comin'
TTITLE7=Gifts That Kids Can't Break
TTITLE8=Years
TTITLE9=O Come, o Come Emmanuel
TTITLE10=Silver Bells
EXTD=
EXTT0=
EXTT1=
EXTT2=
EXTT3=
EXTT4=
EXTT5=
EXTT6=
EXTT7=
EXTT8=
EXTT9=
EXTT10=
PLAYORDER=
